<svg width="50" height="50" viewBox="0 0 50 50" fill="none" xmlns="http://www.w3.org/2000/svg">
<rect width="50" height="50" rx="19" fill="#FAB005"/>
<path d="M31.6875 26.3125H29.0312V28.5625C29.0312 29.0312 28.625 29.4062 28.1875 29.4062C27.7188 29.4062 27.3438 29.0312 27.3438 28.5625V26.375L25.75 26.8438L24.6875 26.3438V28.5312C24.6875 30.4688 26.25 32.0312 28.1875 32.0312C30.125 32.0312 31.6875 30.4375 31.6875 28.5V26.3125ZM24.6875 24.5L25.75 25L27.3438 24.5312V23.4062C27.3438 21.5312 25.75 20 23.8438 20C21.9375 20 20.3438 21.5312 20.3438 23.4062V28.4688C20.3438 28.9375 19.9688 29.3125 19.5 29.3125C19.0625 29.3125 18.6875 28.9375 18.6875 28.4688V26.3125H16V28.5C16 30.4375 17.5625 32 19.5 32C21.4375 32 23 30.4688 23 28.5625V23.5312C23 23.0938 23.375 22.7188 23.8438 22.7188C24.3125 22.7188 24.6875 23.0938 24.6875 23.5312V24.5Z" fill="white"/>
</svg>
